<svg xmlns="http://www.w3.org/2000/svg" viewBox="0 0 636 636">
  <g>
    <circle cx="318" cy="318" r="103" fill="#FFFFFF"/>
    <circle cx="318" cy="318" r="96" fill="#FFD600"/>
    <circle cx="318" cy="318" r="96" fill="none" stroke="#FFD600" stroke-width="3"/>
    <path fill="#211D1F" d="M260,319c0,-45 26,-78 62,-78c23,0 43,10 56,27c-19,4 -44,14 -69,29c-21,12 -38,25 -49,38c0,-5 0,-10 0,-16z"/>
    <path fill="#211D1F" d="M375,297c2,7 3,14 3,22c0,44 -27,79 -61,79c-12,0 -24,-4 -34,-11c15,-4 34,-12 53,-23c18,-11 32,-22 39,-33c1,-11 1,-22 0,-34z"/>
    <ellipse cx="319" cy="302" rx="56" ry="17" fill="#211D1F" transform="rotate(-28 319 302)"/>
    <circle cx="331" cy="279" r="10" fill="#FFD600"/>
    <circle cx="313" cy="297" r="5" fill="#FFD600"/>
    <path fill="#211D1F" stroke="#FFD600" stroke-width="8" d="M178,386c0,-21 63,-38 140,-38s140,17 140,38s-63,38 -140,38s-140,-17 -140,-38z"/>
    <path fill="#FFD600" d="M228,355c25,-5 57,-8 90,-8s65,3 90,8c-1,3 -2,5 -4,8c-25,-5 -55,-8 -86,-8s-61,3 -86,8c-2,-3 -3,-5 -4,-8z"/>
    <path fill="#FFD600" d="M269,367h6v7l10,12l10,-19h8l12,23h-7l-7,-13l-7,13h-7l-7,-8v8h-11z"/>
    <path fill="#FFD600" d="M303,367h7l8,12v11h-7v-11z"/>
    <path fill="#FFD600" d="M318,367h7l-7,10l-4,-5z"/>
    <path fill="#FFD600" d="M333,367c7,0 12,5 12,11s-5,12 -12,12c-3,0 -6,-1 -8,-3l3,-5c1,1 3,2 5,2c4,0 6,-3 6,-6s-2,-6 -6,-6s-6,3 -6,6v1h-6v-1c0,-6 5,-11 12,-11z"/>
    <path fill="#FFD600" d="M347,367h6v13c0,3 2,5 5,5s5,-2 5,-5v-13h6v13c0,6 -4,10 -11,10s-11,-4 -11,-10z"/>
    <path fill="#FFD600" d="M281,367h7l-7,10l-4,-4z"/>
  </g>
</svg>
