<svg xmlns="http://www.w3.org/2000/svg" viewBox="0 0 636 636">
  <g>
    <circle fill="#FFFFFF" cx="318" cy="318" r="102.5"/>
    <circle fill="#FFD600" cx="318" cy="318" r="97.5"/>
    <path fill="#222222" stroke="#222222" stroke-width="1.6" d="M318,244.7C318,244.7,318,244.7,318,244.7c0.1,0,0.1,0,0.1,0H318z"/>
    <path fill="#222222" d="M375.9,298.3v-2.1l-1.4,1.5c-9.8,10.5-24.2,21.5-40.7,31.1c-16.7,9.6-33.7,16.7-47.8,19.9l-1.8,0.4l1.5,1c9.6,6.4,20.7,9.8,32.2,9.8c32,0,58-26,58-58c0-0.6,0-1.2-0.1-1.8C375.9,299.5,375.9,298.9,375.9,298.3z"/>
    <path fill="#222222" d="M382.3,264.8c-1.6-2.8-4.9-4.6-9.8-5.2c-4-0.5-8.7-0.3-14.2,0.6c-10.9-10.5-25.2-16.3-40.3-16.3c-32,0-57.9,26-57.9,58c0,4.6,0.6,9.2,1.6,13.8c-3.8,4.4-6.5,8.6-8.2,12.5c-1.9,4.4-2,8.2-0.4,11c1.6,2.8,4.9,4.6,9.8,5.2c1.4,0.2,2.9,0.3,4.6,0.3c3.9,0,8.3-0.5,13.1-1.6c14.5-3.1,31.9-10.2,49.1-20.2c17.1-9.8,32-21.3,42.1-32.5c4.8-5.2,8.1-10.1,10-14.6C383.8,271.4,383.9,267.6,382.3,264.8z"/>
    <path fill="#222222" d="M318,351.2c-33.7,0-64.6,2.8-88.7,7.4c15.4,33.6,49.3,56.9,88.7,56.9c39.4,0,73.3-23.3,88.7-56.9C382.6,354,351.7,351.2,318,351.2z"/>
    <path fill="#FFD600" d="M227.7,354.9c1,2.5,2.1,4.9,3.3,7.3c24.4-4.6,54.9-7.1,86.9-7.1c32.1,0,62.6,2.5,86.9,7.1c1.2-2.4,2.3-4.8,3.3-7.3c-25.2-4.9-56.9-7.6-90.4-7.6C284.6,347.3,253,350,227.7,354.9z"/>
    <circle fill="#FFD600" cx="331.4" cy="279.1" r="9.5"/>
    <circle fill="#FFD600" cx="313.3" cy="297.2" r="4.8"/>
    <path fill="#FFD600" d="M294.9,366.8l-9.7,18.5l-10.3-12.2v-6.4h-5.7v22.8h5.7V381l7.1,8.5h6.8l6.7-12.8l6.7,12.8h5.9l-11.9-22.8L294.9,366.8L294.9,366.8z"/>
    <path fill="#FFD600" d="M302.5,366.8l8,12.1v10.7h5.8v-10.7l-8-12.1H302.5z"/>
    <path fill="#FFD600" d="M318.1,366.8l-3.7,5.7l3,4.6l6.7-10.3L318.1,366.8L318.1,366.8z"/>
    <path fill="#FFD600" d="M361,380.3c0,0.5,0,1.1-0.2,1.6s-0.5,0.9-0.9,1.3c-0.9,0.7-1.9,1.1-3,1.1s-1.1,0-1.6-0.3c-0.5-0.2-1-0.5-1.4-0.8c-0.8-0.7-1.2-1.7-1.2-2.9v-13.5h-5.8v13.4c0,1.8,0.4,3.4,1.3,4.9c0.8,1.4,2,2.5,3.5,3.3s3.3,1.2,5.2,1.1c1.8,0,3.5-0.3,5.1-1.2c1.5-0.8,2.7-1.9,3.6-3.2c0.9-1.5,1.3-3.2,1.2-4.9v-13.4H361V380.3L361,380.3L361,380.3z"/>
    <path fill="#FFD600" d="M287.6,366.8h-6.3l-3.9,6l3.7,4l6.6-10H287.6z"/>
    <path fill="#FFD600" d="M333.1,366.8c-6.4,0-11.7,5.1-11.7,11.4s0,0.3,0,0.5h5.6c0-0.1,0-0.3,0-0.5c0-3.3,2.7-5.9,6-5.9s6,2.6,6,5.9s-2.7,5.9-6,5.9s-3.3-0.7-4.4-1.8l-3.2,4.6c2,1.7,4.7,2.7,7.6,2.7c6.4,0,11.7-5.1,11.7-11.4s-5.2-11.4-11.7-11.4L333.1,366.8z"/>
    <circle cx="318" cy="318" r="96.6" fill="none" stroke="#FFD600" stroke-width="2"/>
  </g>
</svg>
