<?xml version="1.0" encoding="utf-8"?>
<!-- Generator: Adobe Illustrator 25.0.0, SVG Export Plug-In . SVG Version: 6.00 Build 0)  -->
<svg version="1.1" id="图层_1" xmlns="http://www.w3.org/2000/svg" xmlns:xlink="http://www.w3.org/1999/xlink" x="0px" y="0px"
	 viewBox="0 0 636 636" style="enable-background:new 0 0 636 636;" xml:space="preserve">
<style type="text/css">
	.st0{fill:#FFFFFF;}
	.st1{fill:#FFD600;}
	.st2{fill:#222222;stroke:#222222;stroke-width:1.6;}
	.st3{fill:#222222;}
	.st4{clip-path:url(#SVGID_2_);}
</style>
<g>
	<g>
		<circle class="st0" cx="318" cy="318" r="102.5"/>
		<g>
			<g>
				<circle class="st1" cx="318" cy="318" r="97.5"/>
				<g>
					<path class="st2" d="M318,244.7C318,244.7,318,244.7,318,244.7c0.1,0,0.1,0,0.1,0H318z"/>
					<g>
						<path class="st3" d="M375.9,298.3v-2.1l-1.4,1.5c-9.8,10.5-24.2,21.5-40.7,31.1c-16.7,9.6-33.7,16.7-47.8,19.9l-1.8,0.4l1.5,1
							c9.6,6.4,20.7,9.8,32.2,9.8c32,0,58-26,58-58c0-0.6,0-1.2-0.1-1.8C375.9,299.5,375.9,298.9,375.9,298.3z"/>
						<path class="st3" d="M382.3,264.8c-1.6-2.8-4.9-4.6-9.8-5.2c-4-0.5-8.7-0.3-14.2,0.6c-10.9-10.5-25.2-16.3-40.3-16.3
							c-32,0-57.9,26-57.9,58c0,4.6,0.6,9.2,1.6,13.8c-3.8,4.4-6.5,8.6-8.2,12.5c-1.9,4.4-2,8.2-0.4,11c1.6,2.8,4.9,4.6,9.8,5.2
							c1.4,0.2,2.9,0.3,4.6,0.3c3.9,0,8.3-0.5,13.1-1.6c14.5-3.1,31.9-10.2,49.1-20.2c17.1-9.8,32-21.3,42.1-32.5
							c4.8-5.2,8.1-10.1,10-14.6C383.8,271.4,383.9,267.6,382.3,264.8z"/>
					</g>
				</g>
				<g>
					<g>
						<g>
							<defs>
								<circle id="SVGID_1_" cx="318" cy="318" r="97.5"/>
							</defs>
							<clipPath id="SVGID_2_">
								<use xlink:href="#SVGID_1_"  style="overflow:visible;"/>
							</clipPath>
							<g class="st4">
								<g>
									<path class="st3" d="M318,351.2c-33.7,0-64.6,2.8-88.7,7.4c15.4,33.6,49.3,56.9,88.7,56.9c39.4,0,73.3-23.3,88.7-56.9
										C382.6,354,351.7,351.2,318,351.2z"/>
									<path class="st1" d="M227.7,354.9c1,2.5,2.1,4.9,3.3,7.3c24.4-4.6,54.9-7.1,86.9-7.1c32.1,0,62.6,2.5,86.9,7.1
										c1.2-2.4,2.3-4.8,3.3-7.3c-25.2-4.9-56.9-7.6-90.4-7.6C284.6,347.3,253,350,227.7,354.9z"/>
								</g>
							</g>
						</g>
					</g>
				</g>
				<circle class="st1" cx="331.4" cy="279.1" r="9.5"/>
				<circle class="st1" cx="313.3" cy="297.2" r="4.8"/>
			</g>
			<g>
				<path class="st1" d="M318,415.6c-53.8,0-97.6-43.8-97.6-97.6c0-53.8,43.8-97.6,97.6-97.6c53.8,0,97.6,43.8,97.6,97.6
					C415.6,371.8,371.8,415.6,318,415.6z M318,222.4c-52.7,0-95.6,42.9-95.6,95.6s42.9,95.6,95.6,95.6s95.6-42.9,95.6-95.6
					S370.7,222.4,318,222.4z"/>
			</g>
		</g>
	</g>
</g>
<g>
	<polygon class="st1" points="287.7,366.8 287.6,366.8 281.3,366.8 277.4,372.8 281.1,376.8 	"/>
	<polygon class="st1" points="318.1,366.8 314.4,372.5 317.4,377.1 324.1,366.8 	"/>
	<polygon class="st1" points="294.9,366.8 285.2,385.3 274.9,373.1 274.9,366.7 269.2,366.7 269.2,389.5 274.9,389.5 274.9,381 
		282,389.5 288.8,389.5 295.5,376.7 302.2,389.5 308.1,389.5 296.2,366.7 	"/>
	<polygon class="st1" points="302.5,366.8 310.5,378.9 310.5,389.6 316.3,389.6 316.3,378.9 308.3,366.8 	"/>
	<path class="st1" d="M361,366.8v13.5c0,0.5,0,1.1-0.2,1.6s-0.5,0.9-0.9,1.3c-0.9,0.7-1.9,1.1-3,1.1c-1.1,0-1.1,0-1.6-0.3
		c-0.5-0.2-1-0.5-1.4-0.8c-0.8-0.7-1.2-1.7-1.2-2.9v-13.5h-5.8v13.4c0,1.8,0.4,3.4,1.3,4.9c0.8,1.4,2,2.5,3.5,3.3s3.3,1.2,5.2,1.1
		c1.8,0,3.5-0.3,5.1-1.2c1.5-0.8,2.7-1.9,3.6-3.2c0.9-1.5,1.3-3.2,1.2-4.9v-13.4H361z"/>
	<path class="st1" d="M333,366.8C333,366.8,333,366.8,333,366.8c0.1,0,0.1,0,0.1,0H333z"/>
	<path class="st1" d="M333.1,366.8c-6.4,0-11.7,5.1-11.7,11.4c0,0.2,0,0.3,0,0.5c0,0,0,0,0,0h5.6c0-0.1,0-0.3,0-0.5
		c0-3.3,2.7-5.9,6-5.9s6,2.6,6,5.9s-2.7,5.9-6,5.9s-3.3-0.7-4.4-1.8l-3.2,4.6c2,1.7,4.7,2.7,7.6,2.7c6.4,0,11.7-5.1,11.7-11.4
		C344.7,371.9,339.5,366.8,333.1,366.8z"/>
</g>
</svg>
