<?xml version="1.0" encoding="utf-8"?>
<!-- Generator: Adobe Illustrator 25.0.0, SVG Export Plug-In . SVG Version: 6.00 Build 0)  -->
<svg version="1.1" id="图层_1" xmlns="http://www.w3.org/2000/svg" xmlns:xlink="http://www.w3.org/1999/xlink" x="0px" y="0px"
	 viewBox="0 0 636 636" style="enable-background:new 0 0 636 636;" xml:space="preserve">
<style type="text/css">
	.st0{fill:#FFFFFF;}
	.st1{fill:#FFD600;}
	.st2{fill:#222222;stroke:#222222;stroke-width:1.6;}
	.st3{fill:#222222;}
	.st4{clip-path:url(#SVGID_2_);}
	.st5{clip-path:url(#SVGID_4_);}
</style>
<g>
	<g>
		<circle class="st0" cx="318" cy="318" r="102.5"/>
		<g>
			<g>
				<circle class="st1" cx="318" cy="318" r="97.5"/>
				<g>
					<path class="st2" d="M318,244.7C318,244.7,318,244.7,318,244.7c0.1,0,0.1,0,0.1,0H318z"/>
					<g>
						<path class="st3" d="M375.9,298.3v-2.1l-1.4,1.5c-9.8,10.5-24.2,21.5-40.7,31.1c-16.7,9.6-33.7,16.7-47.8,19.9l-1.8,0.4l1.5,1
							c9.6,6.4,20.7,9.8,32.2,9.8c32,0,58-26,58-58c0-0.6,0-1.2-0.1-1.8C375.9,299.5,375.9,298.9,375.9,298.3z"/>
						<path class="st3" d="M382.3,264.8c-1.6-2.8-4.9-4.6-9.8-5.2c-4-0.5-8.7-0.3-14.2,0.6c-10.9-10.5-25.2-16.3-40.3-16.3
							c-32,0-57.9,26-57.9,58c0,4.6,0.6,9.2,1.6,13.8c-3.8,4.4-6.5,8.6-8.2,12.5c-1.9,4.4-2,8.2-0.4,11c1.6,2.8,4.9,4.6,9.8,5.2
							c1.4,0.2,2.9,0.3,4.6,0.3c3.9,0,8.3-0.5,13.1-1.6c14.5-3.1,31.9-10.2,49.1-20.2c17.1-9.8,32-21.3,42.1-32.5
							c4.8-5.2,8.1-10.1,10-14.6C383.8,271.4,383.9,267.6,382.3,264.8z"/>
					</g>
				</g>
				<g>
					<g>
						<g>
							<defs>
								<circle id="SVGID_1_" cx="318" cy="318" r="97.5"/>
							</defs>
							<clipPath id="SVGID_2_">
								<use xlink:href="#SVGID_1_"  style="overflow:visible;"/>
							</clipPath>
							<g class="st4">
								<g>
									<path class="st3" d="M318,351.2c37.9,0,72.4,3.5,97.4,9.2c12.5,2.9,22.9,6.3,30.2,10.3c3.7,2,6.8,4.2,9,6.7
										s3.8,5.5,3.8,8.9s-1.5,6.4-3.8,8.9c-2.2,2.5-5.3,4.7-9,6.7c-7.4,4-17.7,7.4-30.2,10.3c-25.1,5.7-59.5,9.2-97.4,9.2
										s-72.4-3.5-97.4-9.2c-12.5-2.9-22.9-6.3-30.2-10.3c-3.7-2-6.8-4.2-9-6.7s-3.8-5.5-3.8-8.9s1.5-6.4,3.8-8.9
										c2.2-2.5,5.3-4.7,9-6.7c7.4-4,17.7-7.4,30.2-10.3C245.7,354.7,280.1,351.2,318,351.2z"/>
									<path class="st1" d="M318,425.3c-37.1,0-72-3.3-98.3-9.3c-13.5-3.1-24-6.7-31.2-10.7c-4.4-2.4-7.7-4.8-10.1-7.5
										c-3.2-3.6-4.8-7.5-4.8-11.5c0-4.1,1.7-8.1,4.8-11.5c2.3-2.6,5.6-5.1,10-7.5c7.4-4,17.9-7.6,31.2-10.7
										c26.4-6,61.3-9.3,98.3-9.3c37.1,0,72,3.3,98.3,9.3c13.5,3.1,24,6.7,31.2,10.7c4.4,2.4,7.7,4.8,10.1,7.5
										c3.2,3.6,4.8,7.5,4.8,11.5c0,4.1-1.7,8.1-4.8,11.5c-2.3,2.6-5.6,5.1-10,7.5c-7.4,4-17.9,7.6-31.2,10.7
										C389.9,422,355,425.3,318,425.3z M318,355.1c-36.4,0-70.7,3.2-96.5,9.1c-12.6,2.9-22.4,6.3-29.2,9.9
										c-3.5,1.9-6.2,3.9-7.9,5.8c-1.9,2.1-2.8,4.2-2.8,6.3c0,2.1,1,4.2,2.8,6.3c1.7,2,4.4,3.9,7.9,5.8c6.6,3.6,16.5,7,29.2,9.9
										c25.7,5.9,60,9.1,96.5,9.1c36.4,0,70.7-3.2,96.5-9.1c12.6-2.9,22.4-6.3,29.2-9.9c3.5-1.9,6.2-3.9,7.9-5.8
										c1.9-2.1,2.8-4.2,2.8-6.3c0-2.1-1-4.2-2.8-6.3c-1.7-2-4.4-3.9-7.9-5.8c-6.6-3.6-16.5-7-29.2-9.9
										C388.8,358.3,354.5,355.1,318,355.1z"/>
								</g>
							</g>
						</g>
					</g>
				</g>
				<circle class="st1" cx="331.4" cy="279.1" r="9.5"/>
				<circle class="st1" cx="313.3" cy="297.2" r="4.8"/>
			</g>
			<g>
				<g>
					<g>
						<defs>
							<rect id="SVGID_3_" x="269.2" y="366.8" width="97.5" height="22.8"/>
						</defs>
						<clipPath id="SVGID_4_">
							<use xlink:href="#SVGID_3_"  style="overflow:visible;"/>
						</clipPath>
						<g class="st5">
							<g>
								<path class="st1" d="M294.9,366.8l-9.7,18.5l-10.3-12.2v-6.4h-5.7v22.8h5.7V381l7.1,8.5h6.8l6.7-12.8l6.7,12.8h5.9
									l-11.9-22.8L294.9,366.8L294.9,366.8z"/>
								<path class="st1" d="M302.5,366.8l8,12.1v10.7h5.8v-10.7l-8-12.1H302.5z"/>
								<path class="st1" d="M318.1,366.8l-3.7,5.7l3,4.6l6.7-10.3L318.1,366.8L318.1,366.8z"/>
								<path class="st1" d="M361,380.3c0,0.5,0,1.1-0.2,1.6s-0.5,0.9-0.9,1.3c-0.9,0.7-1.9,1.1-3,1.1s-1.1,0-1.6-0.3
									c-0.5-0.2-1-0.5-1.4-0.8c-0.8-0.7-1.2-1.7-1.2-2.9v-13.5h-5.8v13.4c0,1.8,0.4,3.4,1.3,4.9c0.8,1.4,2,2.5,3.5,3.3
									s3.3,1.2,5.2,1.1c1.8,0,3.5-0.3,5.1-1.2c1.5-0.8,2.7-1.9,3.6-3.2c0.9-1.5,1.3-3.2,1.2-4.9v-13.4H361V380.3L361,380.3
									L361,380.3z"/>
								<path class="st1" d="M287.6,366.8h-6.3l-3.9,6l3.7,4l6.6-10H287.6z"/>
								<path class="st1" d="M333.1,366.8c-6.4,0-11.7,5.1-11.7,11.4s0,0.3,0,0.5h5.6c0-0.1,0-0.3,0-0.5c0-3.3,2.7-5.9,6-5.9
									s6,2.6,6,5.9s-2.7,5.9-6,5.9s-3.3-0.7-4.4-1.8l-3.2,4.6c2,1.7,4.7,2.7,7.6,2.7c6.4,0,11.7-5.1,11.7-11.4
									s-5.2-11.4-11.7-11.4L333.1,366.8z"/>
							</g>
						</g>
					</g>
				</g>
			</g>
			<g>
				<path class="st1" d="M318,415.6c-53.8,0-97.6-43.8-97.6-97.6c0-53.8,43.8-97.6,97.6-97.6c53.8,0,97.6,43.8,97.6,97.6
					C415.6,371.8,371.8,415.6,318,415.6z M318,222.4c-52.7,0-95.6,42.9-95.6,95.6s42.9,95.6,95.6,95.6s95.6-42.9,95.6-95.6
					S370.7,222.4,318,222.4z"/>
			</g>
		</g>
	</g>
</g>
</svg>
